<svg xmlns="http://www.w3.org/2000/svg" style="display: none;">
  <symbol id="instagram" viewBox="0 0 2476 2476">
  <path d="M825.4 1238c0-227.9 184.7-412.7 412.6-412.7s412.7 184.8 412.7 412.7-184.8 412.7-412.7 412.7-412.6-184.8-412.6-412.7m-223.1 0c0 351.1 284.6 635.7 635.7 635.7s635.7-284.6 635.7-635.7-284.6-635.7-635.7-635.7S602.3 886.9 602.3 1238m1148-660.9c0 82 66.5 148.6 148.6 148.6 82 0 148.6-66.6 148.6-148.6s-66.5-148.5-148.6-148.5-148.6 66.5-148.6 148.5M737.8 2245.7c-120.7-5.5-186.3-25.6-229.9-42.6-57.8-22.5-99-49.3-142.4-92.6-43.3-43.3-70.2-84.5-92.6-142.3-17-43.6-37.1-109.2-42.6-229.9-6-130.5-7.2-169.7-7.2-500.3s1.3-369.7 7.2-500.3c5.5-120.7 25.7-186.2 42.6-229.9 22.5-57.8 49.3-99 92.6-142.4 43.3-43.3 84.5-70.2 142.4-92.6 43.6-17 109.2-37.1 229.9-42.6 130.5-6 169.7-7.2 500.2-7.2 330.6 0 369.7 1.3 500.3 7.2 120.7 5.5 186.2 25.7 229.9 42.6 57.8 22.4 99 49.3 142.4 92.6 43.3 43.3 70.1 84.6 92.6 142.4 17 43.6 37.1 109.2 42.6 229.9 6 130.6 7.2 169.7 7.2 500.3 0 330.5-1.2 369.7-7.2 500.3-5.5 120.7-25.7 186.3-42.6 229.9-22.5 57.8-49.3 99-92.6 142.3s-84.6 70.1-142.4 92.6c-43.6 17-109.2 37.1-229.9 42.6-130.5 6-169.7 7.2-500.3 7.2-330.5 0-369.7-1.2-500.2-7.2M727.6 7.5c-131.8 6-221.8 26.9-300.5 57.5-81.4 31.6-150.4 74-219.3 142.8C139 276.6 96.6 345.6 65 427.1 34.4 505.8 13.5 595.8 7.5 727.6 1.4 859.6 0 901.8 0 1238s1.4 378.4 7.5 510.4c6 131.8 26.9 221.8 57.5 300.5 31.6 81.4 73.9 150.5 142.8 219.3 68.8 68.8 137.8 111.1 219.3 142.8 78.8 30.6 168.7 51.5 300.5 57.5 132.1 6 174.2 7.5 510.4 7.5 336.3 0 378.4-1.4 510.4-7.5 131.8-6 221.8-26.9 300.5-57.5 81.4-31.7 150.4-74 219.3-142.8 68.8-68.8 111.1-137.9 142.8-219.3 30.6-78.7 51.6-168.7 57.5-300.5 6-132.1 7.4-174.2 7.4-510.4s-1.4-378.4-7.4-510.4c-6-131.8-26.9-221.8-57.5-300.5-31.7-81.4-74-150.4-142.8-219.3C2199.4 139 2130.3 96.6 2049 65c-78.8-30.6-168.8-51.6-300.5-57.5-132-6-174.2-7.5-510.4-7.5-336.3 0-378.4 1.4-510.5 7.5"/>
  </symbol>
  <symbol id = "telegram" viewBox="4 4 16 16">
  <path d="M12 4a8 8 0 1 0 0 16 8 8 0 0 0 0-16m3.93 5.48-1.31 6.19c-.1.44-.36.54-.73.34l-2-1.48-1 .93a.51.51 0 0 1-.4.2l.14-2 3.7-3.35c.17-.14 0-.22-.24-.08l-4.54 2.85-2-.62c-.43-.13-.44-.43.09-.63l7.71-3c.38-.11.7.11.58.65"/>
  </symbol>
  <symbol id = "facebook" viewBox="0 0 24 24">
  <path fill-rule="evenodd" d="M20 1a3 3 0 0 1 3 3v16a3 3 0 0 1-3 3H4a3 3 0 0 1-3-3V4a3 3 0 0 1 3-3zm0 2a1 1 0 0 1 1 1v16a1 1 0 0 1-1 1h-5v-7h2.076a1 1 0 0 0 .949-.684l.443-1.329a.75.75 0 0 0-.712-.987H15V9c0-.5.5-1 1-1h2a1 1 0 0 0 1-1v-.686a.71.71 0 0 0-.519-.695C17.171 5.273 16 5.273 16 5.273c-2.5 0-4 1.727-4 3.227V11h-2a1 1 0 0 0-1 1v1a1 1 0 0 0 1 1h2v7H4a1 1 0 0 1-1-1V4a1 1 0 0 1 1-1z" clip-rule="evenodd"/>
  </symbol>
  <symbol id = "twitter" viewBox="0 0 24 24">
  <path fill-rule="evenodd" d="M19.783 3.918c.348-.082.591-.164.79-.249.28-.12.51-.263.876-.504A1 1 0 0 1 23 4c0 1.08-.135 1.967-.447 2.746a5.5 5.5 0 0 1-1.071 1.674c-.187 3.363-1.16 6.004-2.648 8.005-1.543 2.074-3.595 3.402-5.759 4.146-2.157.741-4.436.907-6.478.656-2.029-.25-3.904-.921-5.211-1.938a1 1 0 0 1 .755-1.78c1.286.185 2.524-.108 3.542-.526q-.301-.165-.565-.348c-.927-.643-1.676-1.514-2.012-2.188A1 1 0 0 1 3.4 13.2C2.047 12.081 1.5 10.536 1.5 9.5a1 1 0 0 1 .723-.96 7 7 0 0 1-.24-.887c-.266-1.287-.242-2.74.047-3.895A1 1 0 0 1 3.866 3.5c1.078 1.868 3.065 3.01 4.915 3.686.87.318 1.675.52 2.279.645.13-1.22.47-2.227.994-3.027a4.59 4.59 0 0 1 2.686-1.957c1.783-.48 3.76.067 5.043 1.071m-9.035 5.89a18 18 0 0 1-2.654-.744c-1.357-.496-2.933-1.27-4.253-2.468q.035.331.1.652c.222 1.071.633 1.671 1.006 1.857a1 1 0 0 1 .49 1.242c-.239.648-.869.7-1.441.558.46.69 1.288 1.378 2.668 1.609a1 1 0 0 1 .032 1.967l-.87.174q.2.174.43.335c.698.483 1.397.69 2.001.54a1 1 0 0 1 .883 1.738c-.644.536-1.396.966-2.15 1.323-.353.168-.749.333-1.178.479q.496.106 1.029.172c1.77.217 3.741.07 5.584-.563 1.836-.631 3.534-1.74 4.804-3.448 1.268-1.705 2.153-4.064 2.272-7.268a1 1 0 0 1 .292-.67c.45-.45.821-.965 1.004-1.579-.32.1-.68.186-1.11.268a1 1 0 0 1-.894-.275c-.765-.764-2.277-1.267-3.533-.929A2.6 2.6 0 0 0 13.727 5.9C13.315 6.53 13 7.51 13 9a1 1 0 0 1-.33.743c-.498.45-1.336.184-1.922.066" clip-rule="evenodd"/>
  </symbol>
</svg>
